<svg id="visual" viewBox="0 0 900 600" width="900" height="600" xmlns="http://www.w3.org/2000/svg" xmlns:xlink="http://www.w3.org/1999/xlink" version="1.1"><path d="M0 301L37.5 301C75 301 150 301 225 304C300 307 375 313 450 294C525 275 600 231 675 214C750 197 825 207 862.5 212L900 217L900 131L862.5 125C825 119 750 107 675 124C600 141 525 187 450 211C375 235 300 237 225 233C150 229 75 219 37.5 214L0 209Z" fill="#897e2c"></path><path d="M0 397L37.5 397C75 397 150 397 225 394C300 391 375 385 450 372C525 359 600 339 675 333C750 327 825 335 862.5 339L900 343L900 215L862.5 210C825 205 750 195 675 212C600 229 525 273 450 292C375 311 300 305 225 302C150 299 75 299 37.5 299L0 299Z" fill="#dfce3a"></path><path d="M0 445L37.5 448C75 451 150 457 225 461C300 465 375 467 450 450C525 433 600 397 675 385C750 373 825 385 862.5 391L900 397L900 341L862.5 337C825 333 750 325 675 331C600 337 525 357 450 370C375 383 300 389 225 392C150 395 75 395 37.5 395L0 395Z" fill="#897e2c"></path></svg>