<svg id="visual" viewBox="0 0 900 600" width="900" height="600" xmlns="http://www.w3.org/2000/svg" xmlns:xlink="http://www.w3.org/1999/xlink" version="1.1"><path d="M0 337L37.5 317C75 297 150 257 225 254C300 251 375 285 450 274C525 263 600 207 675 186C750 165 825 179 862.5 186L900 193L900 149L862.5 142C825 135 750 121 675 141C600 161 525 215 450 217C375 219 300 169 225 169C150 169 75 219 37.5 244L0 269Z" fill="#487b34"></path><path d="M0 409L37.5 395C75 381 150 353 225 353C300 353 375 381 450 371C525 361 600 313 675 293C750 273 825 281 862.5 285L900 289L900 191L862.5 184C825 177 750 163 675 184C600 205 525 261 450 272C375 283 300 249 225 252C150 255 75 295 37.5 315L0 335Z" fill="#6dc94a"></path><path d="M0 481L37.5 464C75 447 150 413 225 414C300 415 375 451 450 455C525 459 600 431 675 418C750 405 825 407 862.5 408L900 409L900 287L862.5 283C825 279 750 271 675 291C600 311 525 359 450 369C375 379 300 351 225 351C150 351 75 379 37.5 393L0 407Z" fill="#487b34"></path></svg>