<svg id="visual" viewBox="0 0 900 600" width="900" height="600" xmlns="http://www.w3.org/2000/svg" xmlns:xlink="http://www.w3.org/1999/xlink" version="1.1"><path d="M0 241L37.5 239C75 237 150 233 225 227C300 221 375 213 450 219C525 225 600 245 675 251C750 257 825 249 862.5 245L900 241L900 197L862.5 193C825 189 750 181 675 167C600 153 525 133 450 128C375 123 300 133 225 143C150 153 75 163 37.5 168L0 173Z" fill="#895f2c"></path><path d="M0 379L37.5 376C75 373 150 367 225 353C300 339 375 317 450 312C525 307 600 319 675 331C750 343 825 355 862.5 361L900 367L900 239L862.5 243C825 247 750 255 675 249C600 243 525 223 450 217C375 211 300 219 225 225C150 231 75 235 37.5 237L0 239Z" fill="#df983d"></path><path d="M0 457L37.5 452C75 447 150 437 225 420C300 403 375 379 450 378C525 377 600 399 675 417C750 435 825 449 862.5 456L900 463L900 365L862.5 359C825 353 750 341 675 329C600 317 525 305 450 310C375 315 300 337 225 351C150 365 75 371 37.5 374L0 377Z" fill="#895f2c"></path></svg>