<svg id="visual" viewBox="0 0 900 600" width="900" height="600" xmlns="http://www.w3.org/2000/svg" xmlns:xlink="http://www.w3.org/1999/xlink" version="1.1"><path d="M0 235L37.5 237C75 239 150 243 225 250C300 257 375 267 450 262C525 257 600 237 675 235C750 233 825 249 862.5 257L900 265L900 149L862.5 142C825 135 750 121 675 128C600 135 525 163 450 170C375 177 300 163 225 151C150 139 75 129 37.5 124L0 119Z" fill="#344d75"></path><path d="M0 289L37.5 290C75 291 150 293 225 306C300 319 375 343 450 344C525 345 600 323 675 313C750 303 825 305 862.5 306L900 307L900 263L862.5 255C825 247 750 231 675 233C600 235 525 255 450 260C375 265 300 255 225 248C150 241 75 237 37.5 235L0 233Z" fill="#4779bd"></path><path d="M0 427L37.5 422C75 417 150 407 225 412C300 417 375 437 450 441C525 445 600 433 675 421C750 409 825 397 862.5 391L900 385L900 305L862.5 304C825 303 750 301 675 311C600 321 525 343 450 342C375 341 300 317 225 304C150 291 75 289 37.5 288L0 287Z" fill="#344d75"></path></svg>