<svg id="visual" viewBox="0 0 900 600" width="900" height="600" xmlns="http://www.w3.org/2000/svg" xmlns:xlink="http://www.w3.org/1999/xlink" version="1.1"><path d="M0 247L37.5 250C75 253 150 259 225 252C300 245 375 225 450 224C525 223 600 241 675 236C750 231 825 203 862.5 189L900 175L900 107L862.5 122C825 137 750 167 675 168C600 169 525 141 450 143C375 145 300 177 225 192C150 207 75 205 37.5 204L0 203Z" fill="#5f497f"></path><path d="M0 307L37.5 314C75 321 150 335 225 333C300 331 375 313 450 315C525 317 600 339 675 330C750 321 825 281 862.5 261L900 241L900 173L862.5 187C825 201 750 229 675 234C600 239 525 221 450 222C375 223 300 243 225 250C150 257 75 251 37.5 248L0 245Z" fill="#9771d1"></path><path d="M0 463L37.5 457C75 451 150 439 225 424C300 409 375 391 450 403C525 415 600 457 675 461C750 465 825 431 862.5 414L900 397L900 239L862.5 259C825 279 750 319 675 328C600 337 525 315 450 313C375 311 300 329 225 331C150 333 75 319 37.5 312L0 305Z" fill="#5f497f"></path></svg>